name processed_emg_signals
 datacolumns 7
 datarows 40
 range 2.699 2.738 
 endheader
Time	RGLTMED	RRF	RADDLONG	RBF	RTA	RGM
2.699	0.0027941442124967	0.0046134196450028	0.0166271348833094	0.0168428740153161	0.1071666482993026	0.007616875258867
2.7	0.0028114549744356	0.0045215180859967	0.0166213628766771	0.0168729669775307	0.1073655096226702	0.0075970731143955
2.7009999999999996	0.002828670144381	0.0044388039258939	0.0166184056158749	0.0168971416365933	0.1075492367553051	0.0075769363651244
2.702	0.0028457901373478	0.0043653844481085	0.0166182118464568	0.0169153345107649	0.1077177374734549	0.007556485383247
2.703	0.0028628157758543	0.004301363135785	0.0166207265814345	0.0169274887679168	0.1078709320815465	0.0075357413226603
2.7039999999999997	0.0028797482577906	0.0042468395795577	0.0166258912582325	0.0169335543479406	0.1080087532241362	0.0075147261049376
2.705	0.0028965891243096	0.0042019093875913	0.0166336439032376	0.0169334880760764	0.1081311456796324	0.0074934624035459
2.706	0.0029133402278169	0.0041666640978742	0.0166439193035053	0.016927253766649	0.1082380661387222	0.0074719736263327
2.707	0.0029300037001368	0.0041411910927535	0.0166566491851523	0.0169148223166989	0.1083294829702844	0.0074502838963014
2.708	0.0029465819209219	0.0041255735157094	0.0166717623979169	0.0168961717890012	0.1084053759774563	0.0074284180306942
2.7089999999999996	0.0029630774863718	0.0041198901903883	0.0166891851053281	0.0168712874839805	0.1084657361465096	0.0074064015183978
2.71	0.0029794931783294	0.0041242155419177	0.0167088409799038	0.0168401620000309	0.1085105653912458	0.0073842604956888
2.711	0.0029958319338211	0.0041386195205339	0.0167306514028013	0.0168027952817523	0.1085398762957301	0.0073620217203387
2.7119999999999997	0.0030120968151187	0.0041631675275557	0.0167545356673706	0.0167591946556136	0.1085536918582385	0.0073397125441135
2.713	0.0030282909803985	0.0041979203437388	0.0167804111860708	0.0167093748525452	0.1085520452392835	0.0073173608837201
2.714	0.0030444176550731	0.0042429340600403	0.0168081937002082	0.016653358016965	0.1085349795164694	0.0072949951902698
2.715	0.0030604801038624	0.0042982600108184	0.0168377974919325	0.0165911737017727	0.1085025474487394	0.0072726444173421
2.716	0.0030764816036657	0.0043639447094764	0.016869135597923	0.016522858848934	0.1084548112523248	0.0072503379877359
2.7169999999999996	0.0030924254172866	0.0044400297865527	0.0169021200242094	0.0164484577554156	0.1083918423904254	0.0072281057590063
2.718	0.0031083147680627	0.0045265519302456	0.0169366619616417	0.0163680220243746	0.1083137213783646	0.0072059779878849
2.719	0.0031241528154508	0.0046235428293515	0.0169726720016217	0.016281610501625	0.1082205376056988	0.0071839852936872
2.7199999999999998	0.003139942631615	0.0047310291185903	0.0170100603518142	0.0161892891974822	0.1081123891765036	0.0071621586207982
2.721	0.0031556871790679	0.0048490323262781	0.0170487370516317	0.0160911311941462	0.1079893827688062	0.0071405292003184
2.722	0.003171389289408	0.0049775688243074	0.0170886121873324	0.0159872165388307	0.1078516335138543	0.0071191285109356
2.723	0.0031870516431925	0.0051166497803831	0.0171295961066114	0.0158776321228793	0.1076992648956216	0.0070979882390736
2.724	0.0032026767509815	0.0052662811124604	0.0171715996326244	0.0157624715471327	0.1075324086706671	0.0070771402383504
2.7249999999999996	0.0032182669355822	0.0054264634453291	0.0172145342774343	0.0156418349738467	0.1073512048081873	0.0070566164883661
2.726	0.0032338243155192	0.0055971920692874	0.0172583124549124	0.015515828965508	0.1071558014498273	0.0070364490528224
2.727	0.0032493507897527	0.0057784569008475	0.0173028476931232	0.01538456631095	0.1069463548885641	0.0070166700369655
2.7279999999999998	0.0032648480236619	0.0059702424454151	0.017348054846197	0.0152481658392331	0.1067230295657655	0.00699731154433
2.729	0.003280317436304	0.0061725277618944	0.0173938503056519	0.0151067522218108	0.1064859980853831	0.0069784056327623
2.73	0.0032957601889556	0.0063852864291891	0.0174401522110898	0.0149604557635627	0.1062354412440872	0.0069599842697035
2.731	0.0033111771749309	0.0066084865145913	0.0174868806601468	0.014809412183314	0.1059715480759869	0.0069420792867311
2.732	0.0033265690106681	0.0068420905440666	0.0175339579175416	0.0146537623844938	0.1056945159103714	0.0069247223333812
2.7329999999999997	0.0033419360280661	0.0070860554744511	0.0175813086230153	0.0144936522165972	0.1054045504406873	0.0069079448303002
2.734	0.0033572782680571	0.00734033266757	0.0176288599978977	0.0143292322281331	0.1051018658027591	0.0068917779218012
2.735	0.003372595475401	0.0076048678662769	0.0176765420499798	0.01416065741175	0.1047866846600905	0.0068762524279321
2.7359999999999998	0.0033878870946897	0.0078796011724018	0.0177242877763061	0.0139880869422456	0.1044592382939721	0.006861398796187
2.737	0.0034031522675497	0.0081644670265876	0.0177720333634456	0.01381168390819	0.1041197666960272	0.0068472470530047
2.738	0.0034183898310288	0.0084593941899991	0.0178197183847536	0.0136316150379336	0.1037685186607505	0.0068338267551959
